<?xml version="1.0" standalone="no"?>
<!DOCTYPE svg PUBLIC "-//W3C//DTD SVG 20010904//EN"
 "http://www.w3.org/TR/2001/REC-SVG-20010904/DTD/svg10.dtd">
<svg version="1.0" xmlns="http://www.w3.org/2000/svg"
 width="413.000000pt" height="411.000000pt" viewBox="0 0 413.000000 411.000000"
 preserveAspectRatio="xMidYMid meet">
<metadata>
Created by potrace 1.16, written by Peter Selinger 2001-2019
</metadata>
<g transform="translate(0.000000,411.000000) scale(0.100000,-0.100000)"
fill="#ffffff" stroke="none">
<path d="M1725 3949 c-524 -80 -972 -367 -1265 -809 -166 -250 -263 -530 -296
-850 -17 -164 -17 -180 0 -334 49 -454 221 -821 531 -1131 422 -422 998 -610
1596 -520 184 27 318 71 514 165 638 309 1035 941 1035 1648 0 125 -20 332
-40 412 -54 219 -112 362 -214 532 -195 324 -442 553 -772 717 -331 165 -725
226 -1089 170z m555 -428 c284 -59 515 -185 720 -391 182 -182 276 -335 359
-587 29 -86 62 -283 48 -283 -2 0 -35 11 -73 24 -145 51 -306 68 -416 45 -132
-28 -243 -98 -508 -320 -338 -283 -469 -356 -704 -395 -102 -16 -111 -16 -212
1 -224 38 -435 169 -765 473 -163 151 -152 131 -134 253 46 305 177 568 391
785 215 217 464 346 784 404 136 25 368 21 510 -9z"/>
</g>
</svg>