<?xml version="1.0" standalone="no"?>
<!DOCTYPE svg PUBLIC "-//W3C//DTD SVG 20010904//EN"
 "http://www.w3.org/TR/2001/REC-SVG-20010904/DTD/svg10.dtd">
<svg version="1.0" xmlns="http://www.w3.org/2000/svg"
 width="304.000000pt" height="304.000000pt" viewBox="0 0 304.000000 304.000000"
 preserveAspectRatio="xMidYMid meet">
<metadata>
Created by potrace 1.11, written by Peter Selinger 2001-2013
</metadata>
<g transform="translate(0.000000,304.000000) scale(0.100000,-0.100000)"
fill="#000000" stroke="none">
<path d="M2086 2005 c-56 -52 -17 -135 64 -135 30 0 45 6 62 25 34 39 34 71
-1 105 -38 39 -87 41 -125 5z"/>
<path d="M413 1812 c-219 -78 -283 -349 -121 -511 64 -65 118 -86 218 -86 100
0 151 20 217 86 65 64 87 119 87 214 1 100 -27 166 -91 226 -86 79 -208 107
-310 71z m205 -83 c53 -26 99 -81 116 -139 7 -25 13 -46 12 -47 -1 -1 -15 1
-32 6 -42 11 -80 -3 -135 -49 -51 -43 -105 -70 -139 -70 -29 0 -88 33 -133 74
-37 34 -38 36 -28 73 41 147 200 219 339 152z"/>
<path d="M1085 1803 c-85 -19 -151 -81 -160 -150 -3 -22 0 -23 76 -23 59 0 79
3 79 13 0 8 8 21 18 29 44 39 114 26 131 -24 22 -63 18 -68 -56 -68 -90 -1
-148 -15 -194 -48 -47 -34 -69 -79 -69 -143 0 -98 78 -166 192 -168 49 -1 128
24 128 40 0 17 19 9 25 -11 6 -18 15 -20 87 -20 64 0 79 3 75 14 -12 32 -19
111 -21 266 -2 133 -5 171 -19 197 -20 38 -68 76 -116 92 -33 11 -135 13 -176
4z m153 -360 c1 -27 -2 -53 -6 -59 -29 -42 -110 -58 -144 -27 -18 16 -24 57
-12 88 10 24 61 44 115 45 l46 0 1 -47z"/>
<path d="M1627 1796 c-64 -23 -114 -73 -123 -124 -21 -108 48 -182 201 -214
60 -13 101 -32 108 -52 16 -40 -24 -76 -84 -76 -50 0 -98 34 -99 71 0 12 -13
15 -71 13 -38 -1 -72 -4 -75 -7 -13 -12 19 -86 48 -114 60 -56 93 -68 198 -68
81 0 102 4 143 25 63 32 89 70 95 136 8 97 -45 147 -200 185 -87 22 -118 40
-118 70 0 54 97 80 138 36 12 -13 22 -29 22 -35 0 -15 -1 -14 88 -17 64 -1 72
1 72 17 0 59 -60 128 -136 154 -50 17 -158 17 -207 0z"/>
<path d="M2467 1796 c-82 -30 -127 -87 -127 -163 0 -81 62 -139 181 -168 120
-30 144 -47 132 -94 -7 -26 -39 -41 -88 -41 -38 0 -95 41 -95 69 0 14 -10 16
-71 15 -39 -2 -73 -5 -76 -8 -11 -11 10 -65 38 -99 52 -63 99 -82 209 -82 80
0 102 4 140 24 75 39 100 77 100 153 0 86 -68 140 -218 173 -84 19 -113 47
-94 89 21 47 118 46 143 -2 20 -38 25 -40 97 -38 73 2 79 8 62 61 -14 42 -70
92 -125 111 -50 17 -158 17 -208 0z"/>
<path d="M2070 1658 c-1 -267 -1 -333 -1 -380 l1 -48 79 0 80 0 -1 285 0 285
-79 0 -79 0 0 -142z"/>
</g>
</svg>
