<svg width="130" height="54" viewBox="0 0 130 54" fill="none" xmlns="http://www.w3.org/2000/svg">
<path d="M46.2416 39.9841C49.9099 39.9841 52.2854 38.4055 53.4974 36.1253H53.6913V39.5216H60.2199V23.0023C60.2199 17.1663 55.2103 14.7107 49.6836 14.7107C43.7368 14.7107 39.8261 17.5171 38.8726 21.9818L45.2397 22.492C45.7083 20.8656 47.1788 19.6697 49.6513 19.6697C51.9945 19.6697 53.3358 20.8337 53.3358 22.8428V22.9385C53.3358 24.5171 51.639 24.7244 47.3243 25.139C42.4117 25.5854 38 27.2118 38 32.6811C38 37.5285 41.5067 39.9841 46.2416 39.9841ZM48.2131 35.2961C46.0961 35.2961 44.5771 34.3235 44.5771 32.4579C44.5771 30.5444 46.1769 29.6036 48.6009 29.2688C50.1038 29.0615 52.5601 28.7107 53.3843 28.1686V30.7677C53.3843 33.3349 51.235 35.2961 48.2131 35.2961Z" fill="white"/>
<path d="M85.303 22.0137C84.689 17.5011 81.0045 14.7107 74.7344 14.7107C68.3836 14.7107 64.1982 17.6128 64.2143 22.3326C64.1982 26 66.5414 28.3759 71.3893 29.3326L75.6879 30.1777C77.8533 30.6082 78.8391 31.3895 78.8714 32.6173C78.8391 34.0683 77.2392 35.1048 74.8314 35.1048C72.3751 35.1048 70.7429 34.0683 70.3228 32.0752L63.5 32C64.2143 37.3023 68.2382 40 74.8152 40C81.2469 40 85.8525 36.7631 85.8686 31.9317C85.8525 28.3918 83.5093 26.2711 78.6936 25.2984L74.2012 24.4055C71.8903 23.9112 71.0338 23.1298 71.05 21.9499C71.0338 20.4829 72.7145 19.5262 74.8476 19.5262C77.2392 19.5262 78.6613 20.8178 79.0007 22.3964L85.303 22.0137Z" fill="white"/>
<path d="M89.2934 39.5216H96.1776V15.0296H89.2934V39.5216ZM92.7516 11.8724C94.804 11.8724 96.4846 10.3257 96.4846 8.42825C96.4846 6.5467 94.804 5 92.7516 5C90.7155 5 89.0349 6.5467 89.0349 8.42825C89.0349 10.3257 90.7155 11.8724 92.7516 11.8724Z" fill="white"/>
<path d="M121.434 22.0137C120.82 17.5011 117.136 14.7107 110.866 14.7107C104.515 14.7107 100.33 17.6128 100.346 22.3326C100.33 26 102.673 28.3759 107.521 29.3326L111.819 30.1777C113.985 30.6082 114.97 31.3895 115.003 32.6173C114.97 34.0683 113.371 35.1048 110.963 35.1048C108.506 35.1048 106.874 34.0683 106.454 32.0752H99.5C100.346 37.5 104.37 40 110.947 40C117.378 40 121.984 36.7631 122 31.9317C121.984 28.3918 119.641 26.2711 114.825 25.2984L110.333 24.4055C108.022 23.9112 107.165 23.1298 107.181 21.9499C107.165 20.4829 108.846 19.5262 110.979 19.5262C113.371 19.5262 114.793 20.8178 115.132 22.3964L121.434 22.0137Z" fill="white"/>
<path d="M20.4316 13.1481C16.6253 13.732 13.3711 15.8269 11.2427 19.0532C10.0369 20.878 9.33232 22.9218 9.09262 25.2576C8.96913 26.4546 8.96913 26.5714 9.09262 27.6955C9.44855 31.0094 10.6979 33.6882 12.9498 35.951C16.0151 39.0313 20.1992 40.4035 24.543 39.7466C25.8795 39.5495 26.8529 39.2284 28.2766 38.5422C32.911 36.2868 35.7948 31.6736 35.7948 26.513C35.7948 25.6006 35.6495 24.0897 35.5042 23.5057C35.112 21.9072 34.6907 20.8634 33.9498 19.6225C32.5333 17.2576 30.7391 15.586 28.342 14.3889C25.9377 13.1846 23.0757 12.7393 20.4316 13.1481ZM24.4631 16.2722C26.526 16.7028 28.204 17.6225 29.6931 19.1262C31.0151 20.4546 31.6979 21.5714 32.3009 23.4108C32.5115 24.0386 32.7512 25.4765 32.6495 25.4765C32.635 25.4765 32.3953 25.3962 32.1193 25.3013C31.066 24.9291 29.8965 24.805 29.0975 24.9729C28.1386 25.1773 27.3323 25.6882 25.4074 27.3086C22.9522 29.3743 22.0006 29.9072 20.2936 30.1919C19.5527 30.3086 19.4873 30.3086 18.7536 30.1846C17.1265 29.9072 15.5938 28.951 13.1967 26.732C12.0127 25.6298 12.0926 25.7758 12.2234 24.8853C12.5575 22.659 13.5091 20.7393 15.0636 19.1554C16.6253 17.5714 18.434 16.6298 20.7585 16.2065C21.7464 16.024 23.4316 16.0532 24.4631 16.2722Z" fill="#FFFFFC"/>
</svg>
