<svg width="206" height="57" viewBox="0 0 206 57" fill="none" xmlns="http://www.w3.org/2000/svg">
<path d="M73.171 56.3509C79.0042 56.3509 82.7817 53.8466 84.709 50.2291H85.0173V55.6173H95.3989V29.4101C95.3989 20.1516 87.4329 16.2559 78.6445 16.2559C69.188 16.2559 62.9693 20.7081 61.4532 27.7911L71.5778 28.6006C72.323 26.0204 74.6614 24.1231 78.5931 24.1231C82.3192 24.1231 84.452 25.9698 84.452 29.1571V29.3089C84.452 31.8133 81.7538 32.1421 74.8927 32.7999C67.0808 33.5082 60.0656 36.0884 60.0656 44.7651C60.0656 52.4552 65.6418 56.3509 73.171 56.3509ZM76.3061 48.9137C72.9397 48.9137 70.5242 47.3706 70.5242 44.411C70.5242 41.3754 73.0682 39.8829 76.9228 39.3516C79.3126 39.0228 83.2185 38.4663 84.5291 37.6062V41.7295C84.5291 45.8023 81.1114 48.9137 76.3061 48.9137Z" fill="white"/>
<path d="M135.285 27.8417C134.309 20.6828 128.45 16.2559 118.479 16.2559C108.381 16.2559 101.725 20.8599 101.751 28.3477C101.725 34.1659 105.451 37.935 113.16 39.4528L119.996 40.7935C123.439 41.4766 125.006 42.7161 125.058 44.6639C125.006 46.9659 122.462 48.6102 118.634 48.6102C114.728 48.6102 112.132 46.9659 111.464 43.8038L100.615 43.6846C101.751 52.0965 108.149 56.3762 118.608 56.3762C128.835 56.3762 136.159 51.241 136.185 43.5762C136.159 37.9603 132.433 34.5959 124.775 33.0528L117.631 31.6362C113.957 30.852 112.595 29.6125 112.621 27.7405C112.595 25.4133 115.267 23.8955 118.659 23.8955C122.462 23.8955 124.724 25.9445 125.263 28.4488L135.285 27.8417Z" fill="white"/>
<path d="M141.631 55.6173H152.578V16.7619H141.631V55.6173ZM147.13 11.7531C150.393 11.7531 153.066 9.29938 153.066 6.28909C153.066 3.30411 150.393 0.850342 147.13 0.850342C143.892 0.850342 141.22 3.30411 141.22 6.28909C141.22 9.29938 143.892 11.7531 147.13 11.7531Z" fill="white"/>
<path d="M192.74 27.8417C191.764 20.6828 185.905 16.2559 175.934 16.2559C165.835 16.2559 159.18 20.8599 159.206 28.3477C159.18 34.1659 162.906 37.935 170.615 39.4528L177.45 40.7935C180.894 41.4766 182.461 42.7161 182.513 44.6639C182.461 46.9659 179.917 48.6102 176.089 48.6102C172.183 48.6102 169.587 46.9659 168.919 43.8038H157.861C159.206 52.4101 165.604 56.3762 176.063 56.3762C186.29 56.3762 193.614 51.241 193.64 43.5762C193.614 37.9603 189.888 34.5959 182.23 33.0528L175.086 31.6362C171.412 30.852 170.05 29.6125 170.075 27.7405C170.05 25.4133 172.722 23.8955 176.114 23.8955C179.917 23.8955 182.179 25.9445 182.718 28.4488L192.74 27.8417Z" fill="white"/>
<path d="M32.1287 13.7771C26.0761 14.7035 20.9013 18.027 17.5169 23.1453C15.5994 26.0403 14.479 29.2827 14.0978 32.9883C13.9015 34.8874 13.9015 35.0727 14.0978 36.856C14.6638 42.1133 16.6506 46.3631 20.2313 49.9529C25.1058 54.8396 31.7591 57.0167 38.6665 55.9745C40.7919 55.6618 42.3397 55.1523 44.6036 54.0638C51.9731 50.4856 56.5588 43.1671 56.5588 34.98C56.5588 33.5325 56.3278 31.1355 56.0967 30.2091C55.473 27.6731 54.803 26.0172 53.6249 24.0486C51.3724 20.2967 48.5194 17.6448 44.7076 15.7457C40.8843 13.835 36.3332 13.1287 32.1287 13.7771ZM38.5394 18.7334C41.8199 19.4166 44.4881 20.8757 46.8561 23.2611C48.9583 25.3687 50.0441 27.1404 51.0028 30.0586C51.3378 31.0544 51.719 33.3357 51.5573 33.3357C51.5342 33.3357 51.153 33.2083 50.714 33.0578C49.0392 32.4672 47.1795 32.2703 45.9089 32.5367C44.3842 32.8609 43.102 33.6715 40.0411 36.2422C36.1369 39.5194 34.6237 40.3647 31.9093 40.8163C30.7311 41.0016 30.6271 41.0016 29.4605 40.8047C26.8731 40.3647 24.4358 38.8477 20.6241 35.3274C18.7413 33.5789 18.8683 33.8105 19.0763 32.3977C19.6076 28.8658 21.1208 25.8203 23.5926 23.3074C26.0761 20.7946 28.9522 19.3008 32.6485 18.6291C34.2194 18.3396 36.8992 18.386 38.5394 18.7334Z" fill="#FFFFFC"/>
</svg>
