<svg width="30" height="30" viewBox="0 0 30 30" fill="none" xmlns="http://www.w3.org/2000/svg">
<path d="M12.5303 1.17517C8.724 1.75911 5.46976 3.854 3.34143 7.08027C2.13562 8.90509 1.43102 10.9489 1.19131 13.2847C1.06782 14.4817 1.06782 14.5985 1.19131 15.7226C1.54724 19.0365 2.79664 21.7153 5.04845 23.9781C8.11383 27.0584 12.2978 28.4306 16.6417 27.7737C17.9782 27.5766 18.9516 27.2555 20.3753 26.5693C25.0097 24.3139 27.8935 19.7007 27.8935 14.5401C27.8935 13.6277 27.7482 12.1168 27.6029 11.5328C27.2107 9.93429 26.7894 8.89049 26.0485 7.64962C24.632 5.28465 22.8378 3.61312 20.4407 2.41604C18.0363 1.21166 15.1744 0.766406 12.5303 1.17517ZM16.5618 4.29925C18.6247 4.72991 20.3027 5.64962 21.7918 7.15327C23.1138 8.48173 23.7966 9.59852 24.3995 11.4379C24.6102 12.0657 24.8499 13.5036 24.7482 13.5036C24.7337 13.5036 24.494 13.4233 24.2179 13.3284C23.1647 12.9562 21.9952 12.8321 21.1962 13C20.2373 13.2044 19.431 13.7153 17.5061 15.3357C15.0509 17.4014 14.0993 17.9343 12.3923 18.219C11.6514 18.3357 11.586 18.3357 10.8523 18.2117C9.22521 17.9343 7.69252 16.9781 5.29543 14.7591C4.11141 13.6569 4.19131 13.8029 4.32206 12.9124C4.6562 10.6861 5.60777 8.76641 7.16225 7.18246C8.724 5.59852 10.5327 4.65692 12.8572 4.23356C13.8451 4.05108 15.5303 4.08028 16.5618 4.29925Z" fill="#FFFFFC"/>
</svg>
